HIERARCHY
ROOT Hips
{
  OFFSET 3.13124 94.3669 -3.18751
  CHANNELS  6 Xposition Yposition Zposition Zrotation Xrotation Yrotation
  JOINT LeftUpLeg
  {
    OFFSET 8.64259 1.95398 -2.38835
    CHANNELS 3 Zrotation Xrotation Yrotation
    JOINT LeftLeg
    {
      OFFSET 43.7702 0 0
      CHANNELS 3 Zrotation Xrotation Yrotation
      JOINT LeftFoot
      {
        OFFSET 40.6238 0 0
        CHANNELS 3 Zrotation Xrotation Yrotation
        JOINT LeftToeBase
        {
          OFFSET 12.7242 0 0
          CHANNELS 3 Zrotation Xrotation Yrotation
          End Site
          {
            OFFSET 0 0 0
          }
        }
      }
    }
  }
  JOINT RightUpLeg
  {
    OFFSET -8.2249 1.95398 -2.59336
    CHANNELS 3 Zrotation Xrotation Yrotation
    JOINT RightLeg
    {
      OFFSET 43.5653 0 0
      CHANNELS 3 Zrotation Xrotation Yrotation
      JOINT RightFoot
      {
        OFFSET 40.6238 0 0
        CHANNELS 3 Zrotation Xrotation Yrotation
        JOINT RightToeBase
        {
          OFFSET 12.7242 0 0
          CHANNELS 3 Zrotation Xrotation Yrotation
          End Site
          {
            OFFSET 0 0 0
          }
        }
      }
    }
  }
  JOINT Spine
  {
    OFFSET 0.165834 0.87714 6.61349
    CHANNELS 3 Zrotation Xrotation Yrotation
    JOINT Spine1
    {
      OFFSET 7.38962 1.71661e-005 0
      CHANNELS 3 Zrotation Xrotation Yrotation
      JOINT Spine2
      {
        OFFSET 11.9445 1.14441e-005 0
        CHANNELS 3 Zrotation Xrotation Yrotation
        JOINT Spine3
        {
          OFFSET 14.7254 4.19617e-005 0
          CHANNELS 3 Zrotation Xrotation Yrotation
          JOINT Spine4
          {
            OFFSET 10.9679 0 0
            CHANNELS 3 Zrotation Xrotation Yrotation
            JOINT RightShoulder
            {
              OFFSET 2.46616 -1.6653 3.69651
              CHANNELS 3 Zrotation Xrotation Yrotation
              JOINT RightArm
              {
                OFFSET 13.0012 0 0
                CHANNELS 3 Zrotation Xrotation Yrotation
                JOINT RightForeArm
                {
                  OFFSET 28.7848 1.52588e-005 0
                  CHANNELS 3 Zrotation Xrotation Yrotation
                  JOINT RightHand
                  {
                    OFFSET 26.5688 1.52588e-005 0
                    CHANNELS 3 Zrotation Xrotation Yrotation
                    End Site
                    {
                      OFFSET 0 0 0
                    }
                  }
                }
              }
            }
            JOINT LeftShoulder
            {
              OFFSET 2.38034 -1.29275 -3.75231
              CHANNELS 3 Zrotation Xrotation Yrotation
              JOINT LeftArm
              {
                OFFSET 16.3182 6.10352e-005 0
                CHANNELS 3 Zrotation Xrotation Yrotation
                JOINT LeftForeArm
                {
                  OFFSET 27.0901 0 0
                  CHANNELS 3 Zrotation Xrotation Yrotation
                  JOINT LeftHand
                  {
                    OFFSET 24.5451 1.52588e-005 0
                    CHANNELS 3 Zrotation Xrotation Yrotation
                    End Site
                    {
                      OFFSET 0 0 0
                    }
                  }
                }
              }
            }
            JOINT Neck
            {
              OFFSET 5.0226 -0.0266342 0
              CHANNELS 3 Zrotation Xrotation Yrotation
              JOINT Head
              {
                OFFSET 6.69363 2.86102e-005 0
                CHANNELS 3 Zrotation Xrotation Yrotation
                End Site
                {
                  OFFSET 0 0 0
                }
              }
            }
          }
        }
      }
    }
  }
}
MOTION
Frames:	18
Frame Time:	0.0333333
99.7128 91.627 -31.5471 -106.649 -38.5055 -104.687 179.152 48.8278 95.1424 -29.4998 -44.1654 -3.17524 -2.78865 -4.77075 -12.9145 28.7808 4.17459e-006 1.16017e-005 -179.97 0.835053 91.3832 -32.7357 16.6031 0.938626 76.15 -4.62045 -2.26244 28.7808 1.4467e-005 1.79132e-005 -0.993865 8.41937 -90.2432 10.0592 -2.59605 0.763697 -1.60944 -2.55992 0.87729 -24.1655 -2.70547 -0.052377 -4.15281 -2.7055 -0.0524023 93.6169 -43.8186 -96.3601 16.2096 18.7837 10.7277 -16.8503 -39.3133 -23.3089 -42.5347 2.87267 -12.6532 8.09295 -55.9993 -157.063 13.9431 -25.7613 -0.371683 173.131 73.4745 -174.252 67.9675 -9.71624 -17.9816 16.3459 9.07688 -21.2876 -44.7285 6.93711 21.0512 
99.9302 91.3114 -31.442 -107.538 -38.6806 -104.66 179.222 48.5418 94.6562 -30.0258 -45.7084 -3.38517 -3.08557 -4.82961 -13.1073 28.7808 4.17459e-006 1.16017e-005 -179.79 0.594029 91.9639 -33.5088 17.2306 0.972367 77.2731 -4.01324 -1.97734 28.7808 1.4467e-005 1.79132e-005 -1.10089 8.70938 -90.3673 9.47946 -2.86667 0.523833 -2.18847 -2.84085 0.649595 -24.7489 -2.89177 -0.362673 -4.73626 -2.89176 -0.362692 92.8403 -44.8191 -97.4266 18.1298 18.3473 13.1592 -18.4312 -36.3671 -27.0169 -41.3668 1.91931 -10.3145 14.4382 -57.6126 -151.995 12.4251 -25.0912 0.376444 174.427 70.3339 -175.548 66.1444 -11.3061 -20.7705 17.8475 8.05526 -21.5795 -45.0029 6.11829 21.3169 
100.07 91.0043 -31.3062 -107.895 -39.1709 -104.253 179.326 48.8038 93.9862 -30.2271 -45.1813 -3.31798 -2.97898 -4.33184 -12.111 28.7808 4.17459e-006 1.16017e-005 -179.659 0.769639 92.6453 -34.387 17.2507 0.960077 77.9453 -3.42154 -1.71872 28.7808 1.4467e-005 1.79132e-005 -1.19032 8.91742 -90.4996 9.06191 -3.11141 0.257024 -2.60539 -3.09706 0.393836 -25.1695 -3.04038 -0.690816 -5.15686 -3.04038 -0.690837 92.466 -45.9269 -97.8424 21.3512 17.6517 16.8706 -19.0442 -26.9839 -34.4268 -36.9602 0.594583 -6.98128 19.8061 -58.5955 -147.596 11.6511 -24.9055 0.21058 176.758 60.1037 -177.887 66.0196 -10.6982 -19.9118 19.0092 7.0413 -21.9679 -45.1558 5.19035 21.8805 
100.132 90.8492 -31.0955 -107.658 -39.1303 -103.573 179.399 49.059 93.5522 -30.0957 -45.7957 -3.40742 -2.83651 -4.22167 -11.851 28.7808 4.17459e-006 1.16017e-005 -179.556 1.00283 93.075 -34.6639 17.2315 0.952741 78.4932 -3.2909 -1.65913 28.7808 1.4467e-005 1.79132e-005 -1.19484 9.05525 -90.5958 8.78282 -3.16383 0.0397605 -2.88431 -3.15942 0.179173 -25.4486 -3.0311 -0.914342 -5.43596 -3.03109 -0.914351 92.1873 -47.0748 -98.0446 21.6732 17.433 18.4394 -23.0115 -34.8311 -34.6175 -36.3452 1.26 -9.07512 21.6394 -58.7002 -145.985 9.60685 -24.592 -1.02083 177.786 51.3345 -178.922 63.6448 -10.6388 -20.5223 19.6299 5.98162 -22.6231 -45.0416 4.11557 22.8114 
100.093 90.7693 -30.7974 -107.454 -38.6455 -103.09 179.471 49.4227 93.1315 -30.2601 -44.9569 -3.29807 -2.3961 -4.17335 -11.6346 28.7808 4.17459e-006 1.16017e-005 -179.54 1.0343 93.2032 -34.9162 16.4772 0.895059 78.8474 -3.38586 -1.6928 28.7808 1.4467e-005 1.79132e-005 -1.17975 9.18264 -90.6526 8.52546 -3.16307 -0.0937819 -3.14164 -3.16441 0.0456737 -25.7052 -2.98911 -1.04101 -5.69259 -2.98915 -1.04103 91.929 -47.9518 -98.2799 22.698 17.1679 20.9374 -29.2377 -39.6087 -39.8352 -33.1211 0.775298 -7.82601 20.7235 -58.9881 -146.977 6.99855 -24.0839 -2.36502 178.477 42.0123 -179.62 64.046 -9.14015 -18.1746 20.002 5.17521 -23.1711 -44.9211 3.15738 23.9004 
99.9717 90.7769 -30.4149 -107.315 -37.9886 -102.946 179.603 49.7569 92.4272 -30.4348 -44.5178 -3.24534 -2.13239 -4.14402 -11.5052 28.7808 4.17459e-006 1.16017e-005 -179.622 0.996508 92.9322 -35.286 15.4929 0.81895 78.9186 -3.19365 -1.61245 28.7808 1.4467e-005 1.79132e-005 -1.18017 9.28698 -90.6666 8.31552 -3.17381 -0.143559 -3.3516 -3.17709 -0.00360353 -25.9151 -2.98344 -1.09164 -5.90244 -2.98345 -1.09165 91.6399 -48.2507 -98.6669 23.996 16.9091 24.3609 -37.3828 -40.5154 -48.6539 -26.0223 -0.0234306 -5.12605 17.4836 -59.6525 -150.341 3.89402 -23.2167 -3.03185 178.711 37.8179 -179.857 63.1365 -9.06277 -18.2533 19.9865 4.87443 -23.0142 -44.726 2.57702 24.5644 
99.7608 90.8745 -29.9219 -107.142 -36.9573 -103.098 179.752 49.8266 91.6741 -30.3858 -43.4555 -3.10838 -2.20174 -4.30993 -11.8461 28.7808 4.17459e-006 1.16017e-005 -179.8 0.432162 92.2187 -34.8912 14.5971 0.762374 79.3318 -3.93345 -1.90462 28.7808 1.4467e-005 1.79132e-005 -1.17536 9.36316 -90.6472 8.16325 -3.15648 -0.117298 -3.50387 -3.15858 0.0218731 -26.0672 -2.97519 -1.06137 -6.05458 -2.97517 -1.06139 91.5566 -48.2797 -98.7919 25.4781 16.3785 25.2288 -41.6081 -41.6516 -52.4079 -23.2551 -0.38708 -3.28819 12.8509 -61.1774 -155.601 1.04468 -22.2499 -2.86967 178.769 36.6739 -179.916 57.9927 -10.175 -21.6228 19.6917 5.22905 -21.9055 -44.4442 2.5304 24.6611 
99.4135 90.9424 -29.356 -106.883 -35.6868 -103.147 179.877 50.001 91.0841 -30.5745 -42.3774 -2.97427 -2.34137 -4.40509 -12.0673 28.7808 4.17459e-006 1.16017e-005 179.941 0.110997 91.4583 -35.0728 12.7785 0.635296 79.3094 -4.9491 -2.31138 28.7808 1.4467e-005 1.79132e-005 -1.16348 9.45438 -90.6228 7.98081 -3.12678 -0.0826745 -3.6864 -3.12741 0.0551599 -26.2494 -2.95727 -1.0194 -6.23674 -2.95728 -1.01943 91.9283 -48.3421 -98.1955 26.623 15.9354 25.8091 -45.9646 -41.1106 -56.9766 -17.9713 -0.618007 -1.17628 7.86653 -62.8305 -161.417 -1.19635 -21.5176 -2.88658 178.717 37.7264 -179.863 53.7626 -11.8833 -26.2973 21.1221 5.64349 -20.4349 -45.446 2.65823 24.2031 
98.9068 90.9963 -28.6726 -106.714 -34.171 -103.335 179.98 50.0752 90.6228 -31.067 -41.6615 -2.89138 -1.70979 -4.64979 -12.3572 28.7808 4.17459e-006 1.16017e-005 179.71 -0.446908 90.5681 -35.2704 11.4094 0.540541 79.7682 -5.37211 -2.46548 28.7808 1.4467e-005 1.79132e-005 -1.15152 9.56652 -90.5833 7.75664 -3.0836 -0.0281645 -3.91066 -3.08185 0.107698 -26.4732 -2.93248 -0.954428 -6.46051 -2.93247 -0.954436 92.4481 -48.4038 -97.3675 27.5024 15.5402 26.2995 -49.1736 -39.2376 -60.9589 -12.0256 -0.623528 0.766315 1.72865 -64.4114 -168.504 -3.4035 -20.9337 -3.02626 178.31 41.2878 -179.358 46.4666 -14.1383 -34.7988 24.0979 6.63843 -17.5776 -47.6526 3.48366 22.2353 
98.2349 91.1004 -27.9837 -105.997 -32.5441 -103.224 -179.962 50.3374 90.4311 -31.5243 -40.9911 -2.81092 -1.36666 -4.97098 -12.8633 28.7808 4.17459e-006 1.16017e-005 179.407 -0.822401 89.4902 -35.063 9.23868 0.403845 80.1479 -5.65394 -2.56068 28.7808 1.4467e-005 1.79132e-005 -1.11178 9.60778 -90.5451 7.67488 -2.9921 0.0417987 -3.99267 -2.98736 0.173561 -26.5538 -2.86624 -0.860142 -6.54116 -2.86623 -0.860155 93.4036 -48.2719 -95.8883 28.0889 15.2207 26.1807 -51.4803 -38.3715 -63.4447 -7.73734 -0.406635 1.01877 -6.69282 -65.8681 -178.092 -5.00092 -22.6477 9.10528 154.58 38.7494 -144.8 29.4543 -14.4694 -52.1061 27.2296 8.16316 -14.1712 -50.2152 4.7324 19.6945 
97.4983 91.378 -27.2783 -104.635 -30.7615 -102.85 -179.946 50.4043 90.3746 -30.962 -40.2796 -2.72466 -1.401 -4.92408 -12.7937 28.7808 4.17459e-006 1.16017e-005 178.968 -1.11398 88.2312 -33.8677 6.45445 0.245139 79.7902 -6.61301 -2.95093 28.7808 1.4467e-005 1.79132e-005 -1.05872 9.53895 -90.4788 7.81337 -2.85828 0.171763 -3.85452 -2.84797 0.297485 -26.4138 -2.77765 -0.695882 -6.40122 -2.77769 -0.695918 94.2999 -47.9432 -94.5268 29.0721 14.7133 26.8937 -51.5624 -35.924 -64.8793 -3.8934 -0.23586 2.12218 -17.8505 -66.8929 169.291 -6.67816 -22.8378 15.5603 140.961 36.3233 -128.223 18.643 -11.7622 -61.7053 27.9358 10.5702 -9.31317 -50.3485 6.97333 15.9709 
96.4748 91.4763 -26.4982 -104.281 -28.2597 -102.98 179.974 50.2091 90.8176 -32.4851 -40.262 -2.71565 -0.721563 -5.05668 -12.8408 28.7808 4.17459e-006 1.16017e-005 178.516 -1.81808 86.8964 -33.8762 3.40179 0.0589562 79.6544 -7.38246 -3.25931 28.7808 1.4467e-005 1.79132e-005 -0.989007 9.5423 -90.3874 7.80835 -2.68156 0.380388 -3.85996 -2.66223 0.498082 -26.4169 -2.67175 -0.443704 -6.40429 -2.67177 -0.443726 95.1434 -47.2633 -93.287 30.0688 14.2183 27.8415 -50.652 -33.8742 -65.3491 -1.18909 -0.060438 1.48355 -31.3956 -67.1558 153.876 -8.57276 -22.6751 21.3911 128.939 31.1549 -114.842 7.88413 -6.58253 -68.2448 26.1961 13.4445 -3.66531 -47.9424 9.56811 12.1372 
95.5045 91.4531 -25.863 -103.475 -25.8148 -102.549 179.75 50.0567 91.836 -33.4147 -40.4247 -2.72872 -0.0491781 -5.29617 -13.0823 28.7808 4.17459e-006 1.16017e-005 178.356 -1.42958 86.2 -34.8086 1.59413 -0.0613465 79.1295 -8.85661 -3.88408 28.7808 1.4467e-005 1.79132e-005 -0.923865 9.47491 -90.3226 7.94236 -2.52395 0.506986 -3.72627 -2.49909 0.617949 -26.2811 -2.56077 -0.275838 -6.26847 -2.56078 -0.275861 96.3012 -46.293 -91.5515 31.0255 13.7357 29.1889 -50.5257 -31.8084 -66.5415 3.14195 0.17145 0.987254 -46.2052 -66.4857 136.633 -10.7975 -22.3625 27.5689 116.839 21.3476 -102.665 -9.35362 4.38099 -70.5315 21.7251 16.6483 3.56194 -43.0026 12.6134 7.31128 
94.6197 91.2724 -25.2869 -102.575 -23.6711 -101.812 179.424 49.5634 93.3095 -33.5453 -40.7661 -2.77158 0.621133 -5.48381 -13.2337 28.7808 4.17459e-006 1.16017e-005 178.372 0.0546258 85.9111 -37.4073 -0.219693 -0.203792 77.6585 -9.78498 -4.3664 28.7808 1.4467e-005 1.79132e-005 -0.902568 9.40483 -90.3106 8.0815 -2.46559 0.494403 -3.58728 -2.44135 0.602016 -26.1411 -2.49792 -0.268336 -6.12846 -2.49791 -0.268346 97.7543 -44.8528 -89.3286 32.9099 12.8133 30.3176 -46.2632 -29.0938 -65.0001 3.41238 0.17893 0.742514 -59.9997 -64.9413 119.988 -13.006 -21.1927 29.4947 109.921 17.4014 -98.396 -16.8298 8.80061 -67.4003 16.1952 19.5018 12.7974 -36.4537 15.4223 1.1109 
93.7565 90.8662 -24.7808 -101.798 -21.8345 -100.872 179.098 48.7689 94.971 -33.3008 -41.1508 -2.8257 1.59559 -4.79128 -11.7153 28.7808 4.17459e-006 1.16017e-005 178.62 2.54425 86.0739 -41.7918 -1.17843 -0.31908 75.3288 -8.59391 -4.02762 28.7808 1.4467e-005 1.79132e-005 -0.909387 9.28101 -90.3482 8.32636 -2.47572 0.346984 -3.34232 -2.45856 0.455715 -25.8962 -2.46649 -0.41377 -5.88353 -2.4665 -0.413786 99.4832 -42.2167 -86.6256 35.6512 11.6119 32.5325 -40.9927 -25.8382 -63.1824 2.375 0.107139 0.0575176 -72.6168 -62.6575 104.019 -14.4825 -20.2622 30.7544 104.376 15.275 -96.024 -21.6078 10.9259 -63.6131 7.50134 20.2946 21.4279 -27.2718 16.4798 -3.01992 
92.8251 90.1422 -24.2598 -100.919 -20.4085 -99.8428 178.855 47.6277 96.6871 -32.4851 -40.4443 -2.76397 3.10658 -4.51458 -10.8494 28.7808 4.17459e-006 1.16017e-005 178.911 4.83517 86.7295 -45.7444 0.426383 -0.296804 74.4411 -8.16441 -3.89478 28.7808 1.4467e-005 1.79132e-005 -0.944125 9.09384 -90.43 8.6961 -2.55329 0.0690908 -2.97235 -2.54778 0.181472 -25.5265 -2.45044 -0.70194 -5.51388 -2.45045 -0.701959 101.793 -37.7114 -82.7085 38.8701 10.3338 36.6778 -40.899 -23.8386 -64.9415 3.85013 0.182508 0.271383 -83.5315 -60.0623 89.4198 -15.1335 -19.6958 30.7255 94.7779 16.3364 -93.2964 -25.5517 11.6943 -58.2986 -2.11254 19.2443 29.0859 -16.6153 16.3771 -5.65846 
91.6098 88.813 -23.6295 -100.782 -19.9576 -99.1348 178.666 46.7521 98.0851 -32.524 -38.4308 -2.54537 4.22176 -3.61674 -9.07348 28.7808 4.17459e-006 1.16017e-005 179.134 5.69495 87.8092 -49.4467 4.05567 -0.148312 76.511 -8.55377 -3.9421 28.7808 1.4467e-005 1.79132e-005 -1.08513 8.97822 -90.5187 8.92428 -2.87009 -0.186887 -2.74351 -2.87554 -0.060296 -25.3015 -2.68116 -1.04146 -5.28892 -2.68117 -1.04146 103.35 -31.2756 -79.6696 45.3772 8.2128 40.8352 -38.4585 -23.1074 -63.5151 1.03796 0.0150287 -2.15307 -90.3651 -57.9283 79.8044 -15.5318 -19.319 27.9213 90.5784 20.3004 -92.0032 -18.2644 7.08852 -52.8074 -9.42675 17.5418 34.0951 -6.82567 15.8604 -6.50727 
90.2281 87.3246 -22.9409 -99.693 -19.9498 -97.1931 178.093 47.452 100.495 -33.4545 -42.2137 -2.98255 4.17817 -2.04472 -6.41704 28.7808 4.17459e-006 1.16017e-005 179.272 6.79555 89.7637 -52.3017 6.56745 -0.045593 79.2911 -8.6592 -3.80574 28.7808 1.4467e-005 1.79132e-005 -1.1887 8.78785 -90.7381 9.29897 -3.19953 -0.609386 -2.36815 -3.22323 -0.467843 -24.9288 -2.86802 -1.5435 -4.91616 -2.86803 -1.54353 104.2 -25.0201 -77.5557 52.7024 6.32222 45.4832 -33.9728 -20.8021 -61.7649 1.11794 0.0284575 -1.33542 -95.4692 -56.9475 72.585 -14.6671 -19.8538 23.4132 85.7099 25.2279 -89.7958 -11.8923 3.62463 -46.7331 -14.5226 16.2132 37.449 1.96417 15.5394 -7.02773 
